<?xml version="1.0" encoding="UTF-8"?>
<!-- Created with Inkscape (http://www.inkscape.org/) -->
<svg version="1.1" viewBox="0 0 231 76" xmlns="http://www.w3.org/2000/svg" xmlns:cc="http://creativecommons.org/ns#" xmlns:dc="http://purl.org/dc/elements/1.1/" xmlns:rdf="http://www.w3.org/1999/02/22-rdf-syntax-ns#">
 <metadata>
  <rdf:RDF>
   <cc:Work rdf:about="">
    <dc:format>image/svg+xml</dc:format>
    <dc:type rdf:resource="http://purl.org/dc/dcmitype/StillImage"/>
    <dc:title/>
   </cc:Work>
  </rdf:RDF>
 </metadata>
 <g transform="matrix(.99127 0 0 .97819 1.2822 1.558)">
  <path d="m134.5 74.101c-10.924-5.412-14.699-14.056-8.7404-20.015 1.5178-1.5178 3.4303-3.0019 4.25-3.2981 1.1977-0.43272 1.2449-0.79865 0.24038-1.8635-1.8147-1.9236-1.5335-4.992 0.67466-7.3605 1.8985-2.0364 1.8985-2.0965 3e-3 -4.421l-1.9212-2.3566-3.4214 3.0041c-3.2509 2.8547-12.989 7.2091-16.122 7.2091-1.6479 0-2.0532 4.5169-0.49186 5.4818 1.4606 0.9027 6.5622-2.0695 8.7815-5.1161 1.3056-1.7923 2.5085-2.4797 3.6038-2.0594 3.1145 1.1951 1.3444 4.7244-4.7408 9.4523-1.5867 1.2328-2.3755 2.2414-1.7529 2.2414s2.8753-1.575 5.0061-3.5c4.0837-3.6893 6.1317-4.4024 6.1317-2.1349 0 4.0826-9.5993 10.639-15.566 10.631-3.3999-0.0043-7.6895-2.4053-12.002-6.7178l-3.0353-3.0353-1.64 2.8576c-1.7472 3.0443-7.226 6.8894-9.8253 6.8956-0.86259 0.0021-3.2251-1.4702-5.25-3.2717-4.7999-4.2703-4.7637-5.4964 0.81835-27.725 5.1361-20.452 5.413-23 2.5-23-1.3131 0-2-0.66667-2-1.941 0-2.5709 0.38231-2.7365 8.25-3.5737 6.1898-0.65866 6.75-0.56258 6.75 1.1577 0 1.0318 0.85245 2.4083 1.8943 3.059 1.8274 1.1412 1.733 1.8278-2.6727 19.433-3.1959 12.771-4.215 18.367-3.3943 18.641 1.7546 0.58486 1.4145 3.3026-0.90396 7.2242l-2.0692 3.5 3.5729-3.8057c2.8381-3.023 3.5729-4.6091 3.5729-7.7125 0-8.9875 7.1403-20.452 14.718-23.632 1.7698-0.74258 5.0937-1.3502 7.3864-1.3502 3.6655 0 4.6493 0.535 8.1525 4.4336l3.984 4.4336 2.5829-3.0696c4.4752-5.3185 13.392-7.3613 20.824-4.7705 2.2318 0.77802 4.0229 0.64738 7.3844-0.53862 4.0638-1.4338 4.5381-1.4287 5.6271 0.06053 0.98836 1.3517 2.2997 1.5074 7.7648 0.92212 5.7957-0.62066 6.5756-0.50278 6.5756 0.99387 0 1.5215 0.3502 1.4816 3.368-0.3835 4.8092-2.9723 6.8319-2.6109 10.613 1.8958l3.337 3.9774 2.591-2.6174c1.4251-1.4396 4.0391-3.2294 5.8089-3.9774 4.0382-1.7067 12.039-1.7013 15.125 0.01013 3.5854 1.9886 9.0303 9.4349 9.7658 13.356 1.386 7.3878-3.9741 20.681-9.8902 24.529-8.1185 5.2796-15.585 4.5793-22.901-2.1482-4.7516-4.3691-5.1522-5.1017-5.5744-10.193-0.25019-3.0169-0.0128-7.0864 0.52747-9.0432 0.95986-3.4763 0.90147-3.5871-2.5486-4.8346-3.2904-1.1898-3.6536-1.1153-5.3311 1.0938-1.7125 2.2552-5.6074 13.402-7.9194 22.665-0.79165 3.1715-1.7439 4.5494-3.6431 5.2715-2.6926 1.0237-5.845-0.41982-4.758-2.1787 0.3014-0.48768-0.60355-0.88669-2.011-0.88669s-2.559-0.45331-2.559-1.0074c0-0.55404 1.35-7.0757 3-14.493s3-14.449 3-15.628c0-2.0312-0.10745-2.0056-2.0726 0.49265-1.1399 1.4492-2.6564 2.6349-3.37 2.6349-0.79519 0-1.4931 1.7362-1.803 4.4856-0.27808 2.4671-1.2717 5.6548-2.208 7.0838-2.0687 3.1572-8.784 6.36-13.547 6.4608-3.4828 0.0737-3.4746 0.08384 1.659 2.0579 6.0209 2.3153 12.19 9.0584 12.951 14.156 1.0664 7.1453-5.9476 12.674-17.033 13.427-4.6568 0.31608-7.0117-0.05065-10.077-1.5692zm17.086-10.587c0.33519-1.3355 0.37603-3.01 0.0908-3.7211-0.28527-0.7111-0.55421-0.07294-0.59763 1.4181-0.0434 1.4911-1.0914 3.6841-2.329 4.8734l-2.25 2.1624 2.2382-1.1523c1.231-0.63375 2.5124-2.245 2.8476-3.5805zm-4.0404 1.0314c1.35-1.35 2.4546-2.8699 2.4546-3.3776 0-1.6594-2.5234-3.068-6.6894-3.7342-3.3682-0.53859-4.4627-0.28154-6.2004 1.4561-2.0362 2.0362-2.8183 6.0688-1.4435 7.4435 0.36666 0.36667 2.6371 0.66667 5.0454 0.66667 3.3158 0 4.9747-0.59589 6.8333-2.4545zm-19.545-9.0152c1.8618-2.2116 1.9894-2.5945 0.5-1.5-2.3605 1.7347-3.4636 3.1232-3.4847 4.3864-8e-3 0.50417 0.0972 0.72917 0.23469 0.5 0.1375-0.22917 1.375-1.753 2.75-3.3864zm80.729-3.1344c-0.3323-0.33229-1.1948-0.36782-1.9167-0.07895-0.79773 0.31923-0.56078 0.55618 0.60417 0.60417 1.0542 0.04342 1.6448-0.19293 1.3125-0.52522zm-132.05-2.5833c-0.31923-0.79773-0.55618-0.56078-0.60417 0.60417-0.04342 1.0542 0.19293 1.6448 0.52522 1.3125 0.33229-0.33229 0.36782-1.1948 0.07895-1.9167zm139.11-3.0498c1.0864-1.7945 2.2677-4.3876 2.625-5.7626 0.38077-1.4652-0.19974-0.85986-1.4025 1.4625-1.1287 2.1794-3.2822 5.2752-4.7857 6.8796-2.3139 2.4693-2.4018 2.7456-0.57286 1.8001 1.1884-0.61433 3.0495-2.5852 4.136-4.3796zm-128.67 2.4874c1.2439-1.5861 1.2085-1.6214-0.37756-0.37756-0.9625 0.75484-1.75 1.5423-1.75 1.75 0 0.82303 0.82119 0.2933 2.1276-1.3724zm125.11-2.4746c2.9042-3.3577 5.2891-9.5487 6.366-16.525 0.62276-4.0346 0.53022-4.25-1.8258-4.25-5.5015 0-11.44 9.3625-12.509 19.722l-0.57511 5.5723 2.9051-0.67941c1.5978-0.37368 4.1352-2.1016 5.6387-3.8399zm-94.106 1.4746c1.2439-1.5861 1.2085-1.6214-0.37756-0.37756-0.9625 0.75484-1.75 1.5423-1.75 1.75 0 0.82303 0.82119 0.2933 2.1276-1.3724zm49.535-1.5c-0.27741-0.6875-0.50439-0.125-0.50439 1.25s0.22698 1.9375 0.50439 1.25 0.27741-1.8125 0-2.5zm-82.78-29.75c-0.0351-0.825-1.8107 5.25-3.9459 13.5-2.1351 8.25-3.8534 15.675-3.8183 16.5 0.0351 0.825 1.8107-5.25 3.9459-13.5 2.1351-8.25 3.8534-15.675 3.8183-16.5zm48.713 25.854c1.8948-2.134 1.8929-2.1392-0.34501-0.96482-1.2375 0.64938-2.25 1.6149-2.25 2.1455 0 1.4206 0.47868 1.2028 2.595-1.1807zm36.206-4.3545c0-1.5837-0.16667-1.4796-0.80064 0.5-0.44035 1.375-0.80064 3.4-0.80064 4.5 0 1.5837 0.16667 1.4796 0.80064-0.5 0.44035-1.375 0.80064-3.4 0.80064-4.5zm-67.226-10.608c1.5074-2.1752 3.9072-4.8656 5.3329-5.9785 1.6026-1.2511 1.8286-1.6536 0.59208-1.0544-4.8555 2.3528-11.523 12.661-11.411 17.641 0.02471 1.1 0.65254 0.05299 1.3952-2.3267 0.74264-2.3797 2.5836-6.1064 4.091-8.2816zm96.463-0.24216c1.2174-1.7768 3.6131-4.2247 5.3237-5.44s2.5885-2.2095 1.951-2.2095c-3.8742 0-12.388 12.177-12.236 17.5 0.0314 1.1 0.66253 0.0605 1.4024-2.31 0.73993-2.3705 2.3414-5.7637 3.5589-7.5405zm-48.027 7.1005c1.0899-1.7875 1.9372-4.375 1.8829-5.75-0.0827-2.0964-0.22532-1.9647-0.88332 0.81533-0.43159 1.8234-1.814 4.4109-3.072 5.75-1.258 1.3391-1.7522 2.4347-1.0982 2.4347 0.65396 0 2.0807-1.4625 3.1706-3.25zm68.672 1.0625c-0.31922-0.79773-0.55618-0.56078-0.60416 0.60417-0.0434 1.0542 0.19292 1.6448 0.52522 1.3125 0.33229-0.33229 0.36781-1.1948 0.0789-1.9167zm-105.17-0.82134c3.3609-2.0772 6.078-6.9119 5.1649-9.1903-0.29742-0.74212-0.55523-0.43002-0.60027 0.72668-0.10947 2.8114-2.7293 6.2883-6.4457 8.5544-1.7233 1.0508-2.7364 1.9123-2.2513 1.9143 0.48508 0.0021 2.3446-0.90024 4.1323-2.0051zm31.636 0.92835c1.8618-0.99642 4.8496-6.4718 4.8496-8.8874 0-1.1467-2.9572-1.3695-5.4552-0.41094-1.9545 0.75001-4.5448 5.4972-4.5448 8.3292 0 2.2759 2.004 2.6531 5.1504 0.96917zm25.65-6.4195c0-1.5837-0.16667-1.4796-0.80064 0.5-0.44035 1.375-0.80064 3.4-0.80064 4.5 0 1.5837 0.16667 1.4796 0.80064-0.5 0.44035-1.375 0.80064-3.4 0.80064-4.5zm-55.285-0.52964c0.84482-1.6337 1.1145-2.9704 0.59924-2.9704-1.145 0-6.1146 5.7801-6.1146 7.1119 0 1.8287 3.9694-1.152 5.5153-4.1416zm104.17 0.27964c-0.25153-0.9625-0.45733-0.175-0.45733 1.75s0.2058 2.7125 0.45733 1.75c0.25152-0.9625 0.25152-2.5375 0-3.5zm-84.707-6.5816c1.7442-1.4676 3.6617-2.6684 4.2612-2.6684s0.83176-0.25818 0.51621-0.57374c-0.91201-0.91201-6.4857 2.3447-8.1989 4.7905-0.85838 1.2255-1.5322 2.9156-1.4973 3.7557 0.041 0.98866 0.36043 0.79321 0.90546-0.55407 0.46315-1.1449 2.2692-3.2824 4.0133-4.75zm36.701 2.1441c-0.31922-0.79773-0.55618-0.56078-0.60416 0.60417-0.0434 1.0542 0.19292 1.6448 0.52522 1.3125 0.33229-0.33229 0.36781-1.1948 0.0789-1.9167zm14.317-4.7637c0.825-0.56 0.98735-1.0251 0.36078-1.0335-0.62656-0.0084-2.2016 0.9101-3.5 2.0412-1.8553 1.6161-1.9326 1.8374-0.36078 1.0335 1.1-0.56264 2.675-1.4812 3.5-2.0412zm-27-0.0488c1.828-1.1813 0.24909-1.1813-2.5 0-1.3187 0.56668-1.4891 0.87816-0.5 0.9144 0.825 0.03024 2.175-0.38125 3-0.9144zm15.269 0.34406c-0.67703-0.27392-2.027-0.2906-3-0.03705-0.97297 0.25354-0.41903 0.47766 1.231 0.49804 1.65 0.02038 2.4461-0.18706 1.769-0.46099zm-89.586-7.5316c-0.31923-0.79773-0.55618-0.56078-0.60417 0.60417-0.04342 1.0542 0.19293 1.6448 0.52522 1.3125 0.33229-0.33229 0.36782-1.1948 0.07895-1.9167zm1-4c-0.31923-0.79773-0.55618-0.56078-0.60417 0.60417-0.04342 1.0542 0.19293 1.6448 0.52522 1.3125 0.33229-0.33229 0.36782-1.1948 0.07895-1.9167zm3.5669-6.4748c-0.6875-0.27741-1.8125-0.27741-2.5 0s-0.125 0.50439 1.25 0.50439 1.9375-0.22697 1.25-0.50439zm-33.568 54.387c-4.7999-4.2703-4.7637-5.4964 0.81835-27.725 5.1361-20.452 5.413-23 2.5-23-1.3131 0-2-0.66667-2-1.941 0-2.5709 0.38231-2.7365 8.25-3.5737 6.1898-0.65866 6.75-0.56258 6.75 1.1577 0 1.0318 0.85245 2.4083 1.8943 3.059 1.8274 1.1412 1.733 1.8278-2.6727 19.433-3.1959 12.771-4.215 18.367-3.3943 18.641 1.7411 0.58035 1.42 3.2836-0.85807 7.2242l-2.0233 3.5 3.0215-3.4556c2.2577-2.582 3.309-3.168 4.1589-2.3181 2.4763 2.4763-6.3783 12.274-11.093 12.274-0.91876 0-3.3272-1.4739-5.3521-3.2754zm-1.9985-6.9121c-0.31923-0.79773-0.55618-0.56078-0.60417 0.60417-0.04342 1.0542 0.19293 1.6448 0.52522 1.3125 0.33229-0.33229 0.36782-1.1948 0.07895-1.9167zm10.444-0.5625c1.2439-1.5861 1.2085-1.6214-0.37756-0.37756-1.6657 1.3064-2.1955 2.1276-1.3724 2.1276 0.20766 0 0.99516-0.7875 1.75-1.75zm-2.2455-32.25c-0.0351-0.825-1.8107 5.25-3.9459 13.5-2.1351 8.25-3.8534 15.675-3.8183 16.5 0.0351 0.825 1.8107-5.25 3.9459-13.5 2.1351-8.25 3.8534-15.675 3.8183-16.5zm0.80104-4.1875c-0.31923-0.79773-0.55618-0.56078-0.60417 0.60417-0.04342 1.0542 0.19293 1.6448 0.52522 1.3125 0.33229-0.33229 0.36782-1.1948 0.07895-1.9167zm1-4c-0.31923-0.79773-0.55618-0.56078-0.60417 0.60417-0.04342 1.0542 0.19293 1.6448 0.52522 1.3125 0.33229-0.33229 0.36782-1.1948 0.07895-1.9167zm3.5669-6.4748c-0.6875-0.27741-1.8125-0.27741-2.5 0s-0.125 0.50439 1.25 0.50439 1.9375-0.22697 1.25-0.50439zm-63.25 54.703c0-1.5098-0.65015-2.0404-2.5-2.0404-3.8842 0-3.3194-3.4807 0.75-4.6226 2.9422-0.82557 4.4771-3.065 16.206-23.645 12.817-22.489 12.992-22.733 16.281-22.733 2.2502 0 3.5377 0.56582 3.982 1.75 0.36115 0.9625 1.3073 2.238 2.1025 2.8345 1.0105 0.7579 2.1528 6.9313 3.7935 20.5 1.2912 10.679 2.806 20.197 3.3661 21.152 0.56015 0.95504 1.0185 2.4175 1.0185 3.25s0.708 1.5136 1.5733 1.5136c0.96013 0 1.442 0.68206 1.2363 1.75-0.2894 1.5027-1.5362 1.75-8.8233 1.75-6.8767 0-8.4863-0.2845-8.4863-1.5 0-0.825-1.0879-1.725-2.4175-2-3.664-0.7578-3.6967-2.8899-0.06388-4.1563 2.9869-1.0412 3.1594-1.3548 2.6012-4.7294-0.32879-1.9878-0.60276-4.1767-0.60881-4.8642-0.007456-0.84675-1.7807-1.25-5.4966-1.25h-5.4856l-3.0144 5.9715c-3.5705 7.0731-3.72 8.6107-0.90904 9.3458 1.1586 0.30299 1.9094 1.1424 1.6695 1.8666-0.30186 0.9115-2.9472 1.4054-8.6054 1.6065-7.6517 0.27203-8.1695 0.16112-8.1695-1.75zm5.6717-10.078c1.3439-2.4541 1.855-3.6142 1.1359-2.578-0.71917 1.0362-2.4195 3.2443-3.7786 4.907-1.3591 1.6627-1.8702 2.8228-1.1359 2.578 0.73431-0.24477 2.4347-2.4529 3.7786-4.907zm27.328 4.038c0-0.55-0.19844-1-0.44098-1s-0.7191 0.45-1.059 1-0.14148 1 0.44098 1 1.059-0.45 1.059-1zm-0.33772-7.25c-0.27741-0.6875-0.50439-0.125-0.50439 1.25s0.22697 1.9375 0.50439 1.25c0.27741-0.6875 0.27741-1.8125 0-2.5zm-21.662-5.75c0.5887-1.1 0.84537-2 0.57037-2s-0.98167 0.9-1.5704 2-0.84537 2-0.57037 2 0.98167-0.9 1.5704-2zm4-7c1.1224-2.2 1.8156-4 1.5406-4s-1.4183 1.8-2.5406 4-1.8156 4-1.5406 4 1.4183-1.8 2.5406-4zm16 1c0-0.55-0.19844-1-0.44098-1s-0.7191 0.45-1.059 1-0.14148 1 0.44098 1 1.059-0.45 1.059-1zm-2.6216-3.75c-0.91559-3.8165-1.0271-3.83-2.8303-0.34293-1.5855 3.066-1.5772 3.0929 0.94532 3.0929 2.2693 0 2.4733-0.29761 1.885-2.75zm2.2839-1.5c-0.27741-0.6875-0.50439-0.125-0.50439 1.25s0.22697 1.9375 0.50439 1.25c0.27741-0.6875 0.27741-1.8125 0-2.5zm-1-8c-0.27741-0.6875-0.50439-0.125-0.50439 1.25s0.22697 1.9375 0.50439 1.25c0.27741-0.6875 0.27741-1.8125 0-2.5zm-2.8554-2.2765c-0.30789-0.30789-0.86705 0.24711-1.2426 1.2333-0.54268 1.4252-0.42782 1.5401 0.5598 0.5598 0.68342-0.67833 0.99067-1.4852 0.68278-1.7931zm1.035-7.4735c1.2199-1.65 1.7661-3 1.2137-3-0.55234 0-1.7024 1.35-2.5556 3s-1.3994 3-1.2137 3 1.3357-1.35 2.5556-3z" fill="#a3daf9"/>
  <path d="m134.5 74.101c-10.924-5.412-14.699-14.056-8.7404-20.015 1.5178-1.5178 3.4303-3.0019 4.25-3.2981 1.1977-0.43272 1.2449-0.79865 0.24038-1.8635-1.8147-1.9236-1.5335-4.992 0.67466-7.3605 1.8985-2.0364 1.8985-2.0965 3e-3 -4.421l-1.9212-2.3566-3.4214 3.0041c-3.2509 2.8547-12.989 7.2091-16.122 7.2091-1.6479 0-2.0532 4.5169-0.49186 5.4818 1.4606 0.9027 6.5622-2.0695 8.7815-5.1161 1.3056-1.7923 2.5085-2.4797 3.6038-2.0594 3.1145 1.1951 1.3444 4.7244-4.7408 9.4523-1.5867 1.2328-2.3755 2.2414-1.7529 2.2414s2.8753-1.575 5.0061-3.5c4.0837-3.6893 6.1317-4.4024 6.1317-2.1349 0 4.0826-9.5993 10.639-15.566 10.631-3.3999-0.0043-7.6895-2.4053-12.002-6.7178l-3.0353-3.0353-1.64 2.8576c-1.7472 3.0443-7.226 6.8894-9.8253 6.8956-0.86259 0.0021-3.2251-1.4702-5.25-3.2717-4.7999-4.2703-4.7637-5.4964 0.81835-27.725 5.1361-20.452 5.413-23 2.5-23-1.3131 0-2-0.66667-2-1.941 0-2.5709 0.38231-2.7365 8.25-3.5737 6.1898-0.65866 6.75-0.56258 6.75 1.1577 0 1.0318 0.85245 2.4083 1.8943 3.059 1.8274 1.1412 1.733 1.8278-2.6727 19.433-3.1959 12.771-4.215 18.367-3.3943 18.641 1.7546 0.58486 1.4145 3.3026-0.90396 7.2242l-2.0692 3.5 3.5729-3.8057c2.8381-3.023 3.5729-4.6091 3.5729-7.7125 0-8.9875 7.1403-20.452 14.718-23.632 1.7698-0.74258 5.0937-1.3502 7.3864-1.3502 3.6655 0 4.6493 0.535 8.1525 4.4336l3.984 4.4336 2.5829-3.0696c4.4752-5.3185 13.392-7.3613 20.824-4.7705 2.2318 0.77802 4.0229 0.64738 7.3844-0.53862 4.0638-1.4338 4.5381-1.4287 5.6271 0.06053 0.98836 1.3517 2.2997 1.5074 7.7648 0.92212 5.7957-0.62066 6.5756-0.50278 6.5756 0.99387 0 1.5215 0.3502 1.4816 3.368-0.3835 4.8092-2.9723 6.8319-2.6109 10.613 1.8958l3.337 3.9774 2.591-2.6174c1.4251-1.4396 4.0391-3.2294 5.8089-3.9774 4.0382-1.7067 12.039-1.7013 15.125 0.01013 3.5854 1.9886 9.0303 9.4349 9.7658 13.356 1.386 7.3878-3.9741 20.681-9.8902 24.529-8.1185 5.2796-15.585 4.5793-22.901-2.1482-4.7516-4.3691-5.1522-5.1017-5.5744-10.193-0.25019-3.0169-0.0128-7.0864 0.52747-9.0432 0.95986-3.4763 0.90147-3.5871-2.5486-4.8346-3.2904-1.1898-3.6536-1.1153-5.3311 1.0938-1.7125 2.2552-5.6074 13.402-7.9194 22.665-0.79165 3.1715-1.7439 4.5494-3.6431 5.2715-2.6926 1.0237-5.845-0.41982-4.758-2.1787 0.3014-0.48768-0.60355-0.88669-2.011-0.88669s-2.559-0.45331-2.559-1.0074c0-0.55404 1.35-7.0757 3-14.493s3-14.449 3-15.628c0-2.0312-0.10745-2.0056-2.0726 0.49265-1.1399 1.4492-2.6564 2.6349-3.37 2.6349-0.79519 0-1.4931 1.7362-1.803 4.4856-0.27808 2.4671-1.2717 5.6548-2.208 7.0838-2.0687 3.1572-8.784 6.36-13.547 6.4608-3.4828 0.0737-3.4746 0.08384 1.659 2.0579 6.0209 2.3153 12.19 9.0584 12.951 14.156 1.0664 7.1453-5.9476 12.674-17.033 13.427-4.6568 0.31608-7.0117-0.05065-10.077-1.5692zm6.75-4.7636c-0.6875-0.27741-1.8125-0.27741-2.5 0-0.6875 0.27741-0.125 0.50439 1.25 0.50439s1.9375-0.22697 1.25-0.50439zm-5.25-1.3377c-1.9584-1.2656-3.2822-1.2656-2.5 0 0.33992 0.55 1.379 0.99311 2.309 0.98469 1.4573-0.013196 1.4837-0.14929 0.19098-0.98469zm13.923-1.5889c3.3466-2.8159 3.9117-5.896 1.6459-8.97-1.3089-1.7758-1.3906-1.6004-0.95896 2.0589 0.51666 4.38 0.10018 5.2876-3.5828 7.808-1.3599 0.93062-1.9569 1.692-1.3267 1.692s2.5303-1.165 4.2225-2.5889zm-2.3778-1.8657c1.35-1.35 2.4546-2.8699 2.4546-3.3776 0-1.6594-2.5234-3.068-6.6894-3.7342-3.3682-0.53859-4.4627-0.28154-6.2004 1.4561-2.0362 2.0362-2.8183 6.0688-1.4435 7.4435 0.36666 0.36667 2.6371 0.66667 5.0454 0.66667 3.3158 0 4.9747-0.59589 6.8333-2.4545zm-21.108-0.93775c-0.71903-2.8648 1.6572-7.8603 4.7791-10.047 1.2255-0.85839 1.7782-1.5607 1.2282-1.5607-1.201 0-5.6492 2.958-6.6797 4.442-0.92103 1.3263-0.99502 7.9949-0.0986 8.8913 1.1798 1.1798 1.385 0.72059 0.77101-1.7256zm44.577-24.63c1.688-7.4125 2.8674-14.265 2.6209-15.227-0.26185-1.0225 0.11197-1.75 0.89922-1.75 0.74105 0 1.6255-0.45 1.9654-1 0.36089-0.58394-0.66263-1-2.46-1-2.7415 0-3.0128 0.25992-2.4814 2.3771 0.32815 1.3074-0.78828 8.6999-2.481 16.428-3.4265 15.643-3.477 15.995-2.1048 14.622 0.53501-0.53501 2.3538-7.0375 4.0418-14.45zm-83.051-31.227c0.019916-1.5125-0.35754-2.75-0.83879-2.75s-0.89124 1.0125-0.9111 2.25c-0.01985 1.2375-2.3352 11.464-5.1452 22.726-2.81 11.262-4.8382 21.162-4.5071 22 0.65908 1.6683 11.344-39.774 11.402-44.226zm20.036 44.25c-1.9584-1.2656-3.2822-1.2656-2.5 0 0.33992 0.55 1.379 0.99311 2.309 0.98469 1.4573-0.013196 1.4837-0.14929 0.19098-0.98469zm45 0.04234c0-0.52671-3.0375-1.9065-6.75-3.0663-3.7125-1.1597-7.425-2.36-8.25-2.6673-1.073-0.39968-1.2025-0.23985-0.45484 0.56143 0.57484 0.61609 4.1748 2.1846 8 3.4856s7.0673 2.4282 7.2048 2.5048c0.1375 0.07669 0.25-0.29151 0.25-0.81822zm52 0.57429c0-0.21085-0.90062-0.61889-2.0014-0.90674s-1.7492-0.11534-1.441 0.38337c0.53825 0.87091 3.4424 1.3125 3.4424 0.52338zm7.8173-1.6466c6.6148-4.0329 11.801-22.49 7.7185-27.47-1.6023-1.9548-1.6231-1.9435-0.91954 0.5 2.6314 9.1387-4.8451 26.937-11.887 28.297-1.9542 0.37751-1.9825 0.447-0.22929 0.5631 1.1 0.07284 3.4928-0.77769 5.3173-1.8901zm-125.74-1.72 2.4243-2.75-2.5 2.1227c-1.375 1.1675-3.175 2.3695-4 2.6711-1.2845 0.46954-1.2736 0.55968 0.07569 0.62728 0.86663 0.04342 2.6666-1.1586 4-2.6711zm11.48-5.0003c0.04659-5.6825 0.5868-7.746 3.4167-13.051 1.8488-3.4658 4.7281-7.4514 6.3985-8.8569 2.6265-2.21 3.7531-2.4962 8.3333-2.1163 2.9129 0.24156 5.2962 0.06468 5.2962-0.39307 0-1.3816-9.9046-0.93402-12.8 0.57845-7.0669 3.6919-12.144 12.762-12.178 21.757-0.01797 4.6372 0.6163 8.833 1.335 8.8315 0.07866-1.68e-4 0.16792-3.0377 0.19836-6.75zm19.445 4.2503c1.2918-1.375 2.1236-2.5 1.8486-2.5s-1.5569 1.125-2.8486 2.5-2.1236 2.5-1.8486 2.5 1.5569-1.125 2.8486-2.5zm77.847-1.0919c-2.0124-7.2882 1.6642-17.927 8.2522-23.879 2.1486-1.9411 4.8802-3.5293 6.0703-3.5293s1.896-0.26782 1.5686-0.59516c-0.32734-0.32734-1.9881-0.28922-3.6906 0.08472-7.6559 1.6815-14.021 11.577-14.038 21.826-5e-3 3.1987 0.45606 6.6862 1.0254 7.75 1.5873 2.9658 1.9078 2.3115 0.81184-1.6576zm16.387-0.63277c2.9042-3.3577 5.2891-9.5487 6.366-16.525 0.62276-4.0346 0.53022-4.25-1.8258-4.25-5.5015 0-11.44 9.3625-12.509 19.722l-0.57511 5.5723 2.9051-0.67941c1.5978-0.37368 4.1352-2.1016 5.6387-3.8399zm-76.265-6.9776c0.0172-0.38624-1.0938 0.34036-2.4688 1.6147s-2.4977 3.3903-2.4949 4.7023c4e-3 2.0793 0.32121 1.8721 2.4688-1.6147 1.355-2.2 2.4777-4.316 2.4949-4.7023zm-29.24-1.4019c-0.3323-0.33229-1.1948-0.36782-1.9167-0.07895-0.79773 0.31923-0.56078 0.55618 0.60417 0.60417 1.0542 0.04342 1.6448-0.19293 1.3125-0.52522zm34.271 0.21116c0-0.21616-0.675-0.65203-1.5-0.96862-0.825-0.31658-1.5-0.13973-1.5 0.39301 0 0.53274 0.675 0.96862 1.5 0.96862s1.5-0.17686 1.5-0.39301zm9.5727-1.9158c3.53-3.0364 4.6604-11.439 1.847-13.73-1.6351-1.3316-1.7214-1.2839-0.9736 0.53881 2.0727 5.0519-0.49232 11.64-5.5425 14.235-2.3532 1.2093-2.3576 1.2356-0.20936 1.25 1.2068 0.0081 3.4021-1.0242 4.8784-2.2941zm-38.273-0.30532c5.5472-2.7978 8.7003-6.4271 8.7003-10.014 0-4.2135-1.6694-5.296-1.787-1.1588-0.11383 4.0035-2.8437 7.6822-7.807 10.52-4.5044 2.5757-3.8569 3.0484 0.89368 0.65229zm20.296-3.8119c-0.11395-5.2597 2.3989-9.2339 7.4752-11.822 2.1211-1.0816 2.7425-1.749 1.6293-1.75-2.6671-0.0023-7.3613 2.6763-9.1396 5.2152-2.0574 2.9374-2.0945 12.783-0.04814 12.783 0.0986 0 0.13607-1.9917 0.0833-4.4261zm13.555 3.3456c1.8618-0.99642 4.8496-6.4718 4.8496-8.8874 0-1.1467-2.9572-1.3695-5.4552-0.41094-1.9545 0.75001-4.5448 5.4972-4.5448 8.3292 0 2.2759 2.004 2.6531 5.1504 0.96917zm-29.635-6.9492c0.84482-1.6337 1.1145-2.9704 0.59924-2.9704-1.145 0-6.1146 5.7801-6.1146 7.1119 0 1.8287 3.9694-1.152 5.5153-4.1416zm73.401-9.6394c0.22916-0.18205-0.55124-0.331-1.7342-0.331s-3.6205 1.3525-5.4167 3.0055l-3.2658 3.0055 5-2.6745c2.75-1.471 5.1875-2.8234 5.4167-3.0055zm-27.917 0.055142c1.2997-1.2719 0.92881-1.2668-2.7768 0.03802-3.0642 1.079-4.9964 1.2324-6.8151 0.54092-1.3961-0.53079-3.2966-0.93084-4.2232-0.889-0.92669 0.04184-0.1099 0.697 1.8151 1.4559 3.9913 1.5735 9.7868 1.0201 12-1.1458zm58 0.61386c-0.825-0.53316-2.4-0.94464-3.5-0.9144l-2 0.05497 2 0.85943c1.1 0.47269 2.675 0.88417 3.5 0.9144 1.3333 0.04886 1.3333-0.05274 0-0.9144zm-128.5-17c0.70381-1.1388-2.5246-1.1388-7 0-2.6927 0.68518-2.5195 0.77549 1.691 0.88169 2.58 0.065073 4.9691-0.33169 5.309-0.88169zm-34.818 53.725c-4.7999-4.2703-4.7637-5.4964 0.81835-27.725 5.1361-20.452 5.413-23 2.5-23-1.3131 0-2-0.66667-2-1.941 0-2.5709 0.38231-2.7365 8.25-3.5737 6.1898-0.65866 6.75-0.56258 6.75 1.1577 0 1.0318 0.85245 2.4083 1.8943 3.059 1.8274 1.1412 1.733 1.8278-2.6727 19.433-3.1959 12.771-4.215 18.367-3.3943 18.641 1.7411 0.58035 1.42 3.2836-0.85807 7.2242l-2.0233 3.5 3.0215-3.4556c2.2577-2.582 3.309-3.168 4.1589-2.3181 2.4763 2.4763-6.3783 12.274-11.093 12.274-0.91876 0-3.3272-1.4739-5.3521-3.2754zm9.2821-48.975c0.019916-1.5125-0.35754-2.75-0.83879-2.75s-0.89124 1.0125-0.9111 2.25c-0.01985 1.2375-2.3352 11.464-5.1452 22.726-2.81 11.262-4.8382 21.162-4.5071 22 0.65908 1.6683 11.344-39.774 11.402-44.226zm-0.8881 41.5 2.4243-2.75-2.5 2.1227c-1.375 1.1675-3.175 2.3695-4 2.6711-1.2845 0.46954-1.2736 0.55968 0.07569 0.62728 0.86663 0.04342 2.6666-1.1586 4-2.6711zm4.4243-46.25c0.70381-1.1388-2.5246-1.1388-7 0-2.6927 0.68518-2.5195 0.77549 1.691 0.88169 2.58 0.065073 4.9691-0.33169 5.309-0.88169zm-64.5 54.04c0-1.5098-0.65015-2.0404-2.5-2.0404-3.8842 0-3.3194-3.4807 0.75-4.6226 2.9422-0.82557 4.4771-3.065 16.206-23.645 12.817-22.489 12.992-22.733 16.281-22.733 2.2502 0 3.5377 0.56582 3.982 1.75 0.36115 0.9625 1.3073 2.238 2.1025 2.8345 1.0105 0.7579 2.1528 6.9313 3.7935 20.5 1.2912 10.679 2.806 20.197 3.3661 21.152 0.56015 0.95504 1.0185 2.4175 1.0185 3.25s0.708 1.5136 1.5733 1.5136c0.96013 0 1.442 0.68206 1.2363 1.75-0.2894 1.5027-1.5362 1.75-8.8233 1.75-6.8767 0-8.4863-0.2845-8.4863-1.5 0-0.825-1.0879-1.725-2.4175-2-3.664-0.7578-3.6967-2.8899-0.06388-4.1563 2.9869-1.0412 3.1594-1.3548 2.6012-4.7294-0.32879-1.9878-0.60276-4.1767-0.60881-4.8642-0.007456-0.84675-1.7807-1.25-5.4966-1.25h-5.4856l-3.0144 5.9715c-3.5705 7.0731-3.72 8.6107-0.90904 9.3458 1.1586 0.30299 1.9094 1.1424 1.6695 1.8666-0.30186 0.9115-2.9472 1.4054-8.6054 1.6065-7.6517 0.27203-8.1695 0.16112-8.1695-1.75zm1.7271-4.6647c1.4978-0.40149 3.668-3.2624 6.6273-8.7363 12.47-23.066 16.465-29.83 19.823-33.557 2.9494-3.2745 3.3159-4.0821 1.8523-4.0821-1.3319 0-5.0748 5.7473-13.862 21.287-12.122 21.436-14.007 24.102-17.667 24.994-1.1138 0.27134-1.3354 0.53259-0.5 0.58958 0.825 0.05629 2.5022-0.16629 3.7271-0.49463zm31.176-0.29435c1.1021-0.69778 1.2567-2.4572 0.72181-8.2129-0.37443-4.0287-1.1531-7.7847-1.7304-8.3467-0.72991-0.71057-0.87863 0.04428-0.48823 2.4782 0.30877 1.925 0.68128 5.5022 0.82782 7.9494 0.23179 3.871-0.05856 4.6166-2.2336 5.7353-2.1757 1.119-2.2406 1.2858-0.5 1.2853 1.1-3.14e-4 2.6312-0.40017 3.4026-0.88858zm-0.90258-20.358c0-3.3902-2.0508-19.108-2.5595-19.617-1.1835-1.1835-1.1894 1.1855-0.02407 9.6608 1.4712 10.7 1.3548 10.925-5.9418 11.488-4.4077 0.33999-4.2054 0.40426 1.7754 0.56396 6.4092 0.17115 6.75 0.06531 6.75-2.096zm-3.6216-3.4738c-0.91559-3.8165-1.0271-3.83-2.8303-0.34293-1.5855 3.066-1.5772 3.0929 0.94532 3.0929 2.2693 0 2.4733-0.29761 1.885-2.75zm-1.5715-11.776c-0.30789-0.30789-0.86705 0.24711-1.2426 1.2333-0.54268 1.4252-0.42782 1.5401 0.5598 0.5598 0.68342-0.67833 0.99067-1.4852 0.68278-1.7931z" fill="#cdcece"/>
  <path d="m136.5 74.003c-1.65-0.51406-4.526-2.2099-6.3912-3.7686-5.7774-4.828-4.8926-12.404 2.0238-17.329 3.1167-2.2193 3.1302-2.2642 0.92148-3.0812l-2.2413-0.82912 2.5936-4.4257c2.7183-4.6384 3.1889-6.0555 1.7069-5.1396-1.5986 0.98797-2.724-1.844-2.6403-6.6437 0.0994-5.6973 2.5944-9.5109 7.9679-12.179 3.6236-1.7993 4.07-1.8114 9.0378-0.24546 5.5729 1.7567 10.678 1.3594 12.621-0.98229 1.8658-2.2482 2.985-1.5784 2.2899 1.3705-0.53294 2.2612-0.4119 2.5278 0.68095 1.5 1.5918-1.4971 5.5629-1.6515 6.4291-0.25 0.33992 0.55-0.28616 1-1.3913 1s-2.3726 0.64915-2.8166 1.4426c-0.44402 0.79341-1.8958 1.8452-3.2262 2.3374-2.0161 0.74582-2.4502 1.6372-2.6068 5.3538-0.33678 7.9924-4.6207 11.708-14.536 12.607-3.2579 0.29542-5.9234 0.95494-5.9234 1.4656 0 0.51068-0.95635 0.62496-2.1252 0.25398-1.3995-0.44418-1.898-0.30682-1.4597 0.40226 0.74844 1.211 14.402 5.6223 16.33 5.2759 0.68472-0.12306 2.6232 1.933 4.3077 4.5689 4.3866 6.8643 2.962 12.165-4.2752 15.908-3.4897 1.8046-13.388 2.6-17.277 1.3883zm16-4.1862 2-2.0954-2 0.77378c-1.1 0.42558-3.7985 1.4242-5.9968 2.2192-5.5947 2.0233-5.7704 2.6799-0.50324 1.8807 2.5482-0.38665 5.3675-1.5917 6.5-2.7782zm-8.1534-0.75761c4.46-1.035 8.6534-4.5724 8.6534-7.2997 0-2.8685-2.0631-6.2759-2.9405-4.8563-0.52859 0.85528-1.467 0.89195-3.4576 0.1351-4.4049-1.6747-7.5187-1.2129-10.252 1.5206-1.9045 1.9045-2.4489 3.3117-2.1277 5.5 0.23852 1.6252-0.02774 2.9407-0.59521 2.9407-1.6005 0 0.57955 1.7352 2.8732 2.2869 3.1 0.74564 3.7331 0.7273 7.8466-0.22728zm-7.6551-14.844c-2.5898-0.55117-4.6916 0.46962-4.6916 2.2786 0 1.3749 0.38024 1.3552 3.25-0.16831 2.5727-1.3658 2.8732-1.8056 1.4416-2.1103zm2.3084-10.216c0-0.55-0.45-1-1-1s-1 0.45-1 1 0.45 1 1 1 1-0.45 1-1zm11.573-7.3088c3.4987-3.0095 4.6578-11.425 1.89-13.722-1.5892-1.319-1.6893-1.2584-1.082 0.65489 0.57562 1.8136 0.33195 2.0438-1.7437 1.647-1.327-0.25368-3.3586 0.04492-4.5145 0.66356-2.8148 1.5064-5.4166 6.7465-4.842 9.7519 0.3376 1.766 0.0896 2.2858-0.90796 1.903-0.75483-0.28966-1.3724-0.090771-1.3724 0.44197 0 0.53274 2.2249 0.96862 4.9442 0.96862 3.723 0 5.6072-0.5703 7.6284-2.3088zm-4.8435-14.295c-0.3323-0.33229-1.1948-0.36782-1.9167-0.07895-0.79773 0.31923-0.56078 0.55618 0.60417 0.60417 1.0542 0.04342 1.6448-0.19293 1.3125-0.52522zm-88.123 33.983c-2.1149-1.4371-3.4516-2.8977-2.9705-3.2457 1.0335-0.74772 11.422-42.605 11.388-45.883-0.013019-1.2375-0.47367-2.25-1.0237-2.25s-1.0522 1.0125-1.116 2.25c-0.076028 1.4746-0.26488 1.6922-0.54802 0.63139-0.23761-0.89024-1.4229-2.0973-2.634-2.6823-1.886-0.91108-1.4958-1.0734 2.7193-1.1314 3.096-0.042579 5.5995-0.68149 6.75-1.7227 1.728-1.5638 1.8287-1.5088 1.8287 1 0 1.6933 0.54332 2.655 1.5 2.655 2.0321 0 2.0404-0.059253-2.5 18-2.2 8.7505-4 17.1-4 18.555 0 1.6747-1.2473 3.8923-3.4 6.045-1.87 1.87-2.8073 3.4-2.0829 3.4s2.9206-1.9125 4.8804-4.25c4.0943-4.8832 4.8101-3.8086 1.1025 1.6549-1.375 2.0262-2.5 4.114-2.5 4.6395 0 1.8778 1.9769 0.9058 4.1581-2.0444 2.8922-3.9118 4.475-3.8804 2.1575 0.04284-3.7224 6.3014-8.5633 7.8324-13.709 4.3357zm22 0c-2.1149-1.4371-3.4516-2.8977-2.9705-3.2457 1.0335-0.74772 11.422-42.605 11.388-45.883-0.013019-1.2375-0.47367-2.25-1.0237-2.25s-1.0522 1.0125-1.116 2.25c-0.076028 1.4746-0.26488 1.6922-0.54802 0.63139-0.23761-0.89024-1.4229-2.0973-2.634-2.6823-1.886-0.91108-1.4958-1.0734 2.7193-1.1314 3.096-0.042579 5.5995-0.68149 6.75-1.7227 1.728-1.5638 1.8287-1.5088 1.8287 1 0 1.6933 0.54332 2.655 1.5 2.655 2.0321 0 2.0404-0.059253-2.5 18-2.2 8.7505-4 17.1-4 18.555 0 1.6747-1.2473 3.8923-3.4 6.045-1.87 1.87-2.8073 3.4-2.0829 3.4s2.9206-1.9125 4.8804-4.25c4.0943-4.8832 4.8101-3.8086 1.1025 1.6549-1.375 2.0262-2.5 4.114-2.5 4.6395 0 1.8778 1.9769 0.9058 4.1581-2.0444 2.8922-3.9118 4.475-3.8804 2.1575 0.04284-3.7224 6.3014-8.5633 7.8324-13.709 4.3357zm25.894 1.0489c-6.4001-3.3286-7.2311-4.8398-7.0215-12.768 0.16116-6.0947 0.7272-8.2653 3.5235-13.512 1.8323-3.4377 4.6571-7.3659 6.2773-8.7292 2.5485-2.1444 3.8024-2.4472 9.2963-2.2443 6.756 0.24944 7.7063 0.92186 11.324 8.0123 1.1958 2.3438 1.162 2.895-0.26438 4.3214-0.89923 0.89924-1.635 2.0222-1.635 2.4954 0 1.6342-6.2062 5.2715-12.842 7.5265-6.5638 2.2305-6.6564 2.3122-6.5515 5.7799 0.0835 2.761-0.22057 3.3919-1.414 2.9339-0.99352-0.38125-1.2699-0.178-0.79738 0.58649 1.9211 3.1084 9.8164 0.25587 14.006-5.0602 1.742-2.2104 2.5805-2.7371 2.588-1.6256 0.0121 1.8005-4.0523 6.4129-7.9889 9.066l-2.5 1.6849 2.6788 0.05245c1.7379 0.03403 3.9872-1.1815 6.4037-3.4606 2.0487-1.9322 3.9625-3.2754 4.2528-2.985 1.0802 1.0802-6.3735 7.5528-9.791 8.5022-4.7718 1.3256-6.033 1.2494-9.5444-0.57679zm11.303-18.619c1.8164-1.1199 3.1494-2.1893 2.9622-2.3765-0.6145-0.61449-11.73 4.0474-11.748 4.9269-0.0249 1.253 4.9667-0.19606 8.7855-2.5504zm-5.8026-1.8889c6.5334-2.9574 10-6.6137 10-10.547 0-1.7896-0.45-3.532-1-3.8719s-1 0.2944-1 1.4096c0 1.1904-0.51617 1.8458-1.25 1.5872-0.6875-0.24225-1.9415 0.10937-2.7867 0.78138-2.2843 1.8162-5.9633 7.3275-5.9633 8.9332 0 0.77142-1.2375 1.8916-2.75 2.4892-1.5125 0.59766-2.075 1.1246-1.25 1.1711s3.525-0.83223 6-1.9526zm3.6628-14.746c-0.99641-0.19189-2.6782 0.4353-3.7372 1.3937-3.1772 2.8753-2.1788 3.5146 1.8116 1.1602 2.8767-1.6973 3.3201-2.2854 1.9256-2.5539zm89.992 35.366c-7.4842-2.6653-9.1717-5.6954-8.9331-16.04 0.29692-12.87 11.881-24.882 20.746-21.512 1.4644 0.55677 3.6985 1.0123 4.9646 1.0123 2.7743 0 7.1069 6.0261 8.0864 11.247 0.90853 4.8429-2.0292 14.703-5.7114 19.17-5.1124 6.2022-12.392 8.5292-19.152 6.1219zm9.3448-2.5397c1.828-1.1813 0.24909-1.1813-2.5 0-1.3187 0.56668-1.4891 0.87816-0.5 0.9144 0.825 0.03023 2.175-0.38125 3-0.9144zm-1.1827-4.03c6.5478-3.9921 11.768-22.372 7.8021-27.47-1.3904-1.7873-1.5592-1.8139-1.5876-0.25-0.02198 1.2098-0.83439 1.75-2.6318 1.75-5.7199 0-13.4 12.631-13.4 22.038 0 2.1794-0.47656 3.9625-1.059 3.9625s-0.7809 0.45-0.44098 1c1.0562 1.709 7.8371 1.0918 11.317-1.03zm2.0993-28.611c1.0035-0.86538-3.5663-0.22744-4.9167 0.68637-1.0955 0.74131-0.69092 0.83408 1.5 0.34401 1.65-0.36908 3.1875-0.83275 3.4167-1.0304zm-208.92 34.714c0-0.50967 0.7875-1.1325 1.75-1.384 0.9625-0.25153 0.0625-0.50952-2-0.57332-4.6949-0.14523-4.8849-1.6805-0.31409-2.538 3.0699-0.57591 3.9091-1.5199 7.8773-8.8613 13.131-24.293 16.652-30.158 20.661-34.419 3.0461-3.2369 4.5363-4.2329 4.8433-3.2368 0.24387 0.7913 1.114 2.2092 1.9337 3.1509 0.98891 1.1362 2.2802 8.201 3.8383 21 1.2914 10.608 2.8121 20.069 3.3792 21.024 0.56716 0.95504 1.0312 2.4175 1.0312 3.25s0.675 1.5136 1.5 1.5136 1.5 0.45 1.5 1c0 1.2705-14.673 1.3384-15.456 0.07149-0.31562-0.51068 0.44533-1.1244 1.691-1.3638 1.2457-0.23942 0.35233-0.4966-1.9852-0.5715-4.3035-0.1379-6.149-2.1233-2-2.1515 4.5364-0.03087 5.1081-1.2222 4.3744-9.1162-0.65229-7.0184-2.6265-12.151-2.6226-6.8185 0.0017 2.3351-0.28716 2.45-6.159 2.45h-6.1608l-2.7133 4.5c-3.2622 5.4104-4.5834 12-2.4059 12 0.79042 0 1.4371 0.45 1.4371 1 0 0.57143-3 1-7 1-3.85 0-7-0.417-7-0.92668zm12.309-14.08c2.0947-3.8463 3.3379-6.9933 2.7626-6.9933s-2.6324 3.15-4.5712 7c-4.578 9.0908-3.143 9.0854 1.8086-0.0067zm14.453-6.6804c-0.95609-0.25029-2.7561-0.25937-4-0.02018-1.2439 0.23919-0.46166 0.44398 1.7383 0.45508s3.2177-0.1846 2.2617-0.4349zm3.8107-9.5629c-1.0321-10.906-1.7358-14.75-2.7001-14.75-0.47971 0-0.87219 0.675-0.87219 1.5s-0.37026 1.5-0.8228 1.5-2.9368 4.0094-5.5206 8.9098c-3.3313 6.3181-4.3282 9.0585-3.4272 9.4211 0.69881 0.28118 4.1412 0.54676 7.6498 0.59019l6.3792 0.078947zm-8.5102-1.2319c2.1658-3.5651 3.9734-7.2776 4.0169-8.25 0.05269-1.1801 0.40053-0.89083 1.046 0.8698 0.79091 2.1575 0.51127 3.3094-1.5356 6.3256-1.3764 2.0283-2.7774 4.5537-3.1133 5.6121-0.33593 1.0584-1.4525 1.9244-2.4813 1.9244-1.6147 0-1.332-0.88639 2.0674-6.4819zm141.55 30.919c-0.32996-0.85986-1.0531-1.2833-1.607-0.94098-1.7959 1.1099-3.2586-0.58886-1.5857-1.8416 1.7194-1.2875 7.9394-27.071 7.214-29.904-0.24648-0.9625 0.0368-1.75 0.6295-1.75s1.8411-0.69095 2.7743-1.5354c1.5541-1.4064 1.7464-1.2866 2.2888 1.4254l0.59217 2.9609 11.293-6.1165 2.3575 2.8828c2.7738 3.3919 2.9583 4.7111 0.94064 6.7287-1.1921 1.1921-2.0729 1.2683-4.4198 0.38245-2.3163-0.87431-3.2964-0.80454-4.6729 0.33263-2.1502 1.7763-5.7058 9.764-7.3175 16.439-2.9723 12.31-3.0565 12.5-5.5325 12.5-1.295 0-2.6244-0.70352-2.9544-1.5634zm14.385-27.935c0.73544-1.3742 0.99969-2.836 0.58722-3.2484-0.86724-0.86724-3.5864 2.4976-3.5864 4.4381 0 2.1205 1.5585 1.5023 2.9992-1.1896z" fill="#8ab9f9"/>
  <path d="m136.5 74.003c-1.65-0.51406-4.575-2.3313-6.5-4.0384-3.2179-2.8536-3.2985-3.0547-1-2.4951 11.828 2.8794 12.66 2.9317 17.465 1.0965 6.1881-2.3633 8.8503-6.4276 8.1012-12.368-0.65133-5.1649 0.40231-4.814 4.0052 1.3339 3.8147 6.5093 2.0775 11.565-5.2757 15.353-3.0535 1.5732-13.173 2.2467-16.796 1.1179zm16-4.1862 2-2.0954-2 0.77378c-1.1 0.42558-3.7985 1.4242-5.9968 2.2192-5.5947 2.0233-5.7704 2.6799-0.50324 1.8807 2.5482-0.38665 5.3675-1.5917 6.5-2.7782zm-21.854-5.2695c-4.3757-4.0553-3.2749-8.7991 2.8853-12.434 3.1752-1.8734 4.0916-1.986 8.0518-0.98877 2.6331 0.66302 5.2854 2.1634 6.4568 3.6527 2.4179 3.0739 2.0769 3.5972-1.4664 2.2501-4.3767-1.664-7.4956-1.1968-10.224 1.5314-1.9045 1.9045-2.4489 3.3117-2.1277 5.5 0.52544 3.5801-0.14169 3.6712-3.576 0.48841zm6.0456-10.332c-2.5898-0.55117-4.6916 0.46962-4.6916 2.2786 0 1.3749 0.38024 1.3552 3.25-0.16831 2.5727-1.3658 2.8732-1.8056 1.4416-2.1103zm-78.966 2.2439c-3.5082-2.3839-4.6731-3.6722-2.9758-3.2913 0.4125 0.09257 2.4426-0.18346 4.5113-0.6134 2.6438-0.54947 4.792-2.0107 7.2304-4.9183 4.0184-4.7915 4.6765-3.6372 1.0083 1.7683-1.375 2.0262-2.5 4.114-2.5 4.6395 0 1.8778 1.9769 0.9058 4.1581-2.0444 2.8922-3.9118 4.475-3.8804 2.1575 0.04284-3.6886 6.2443-8.5671 7.8298-13.59 4.4168zm22 0c-3.5082-2.3839-4.6731-3.6722-2.9758-3.2913 0.4125 0.09257 2.4426-0.18346 4.5113-0.6134 2.6438-0.54947 4.792-2.0107 7.2304-4.9183 4.0184-4.7915 4.6765-3.6372 1.0083 1.7683-1.375 2.0262-2.5 4.114-2.5 4.6395 0 1.8778 1.9769 0.9058 4.1581-2.0444 2.8922-3.9118 4.475-3.8804 2.1575 0.04284-3.6886 6.2443-8.5671 7.8298-13.59 4.4168zm25.599 0.92884c-1.7464-0.86128-3.9004-2.3671-4.7865-3.3463-1.5338-1.6949-1.2734-1.7562 5.4227-1.2771l7.0339 0.50327 4.5026-4.5026c2.4764-2.4764 4.5026-3.9344 4.5026-3.2399 0 1.4768-4.412 6.2663-8 8.6844l-2.5 1.6849 2.6788 0.05245c1.7379 0.03403 3.9872-1.1815 6.4037-3.4606 2.0487-1.9322 3.9625-3.2754 4.2528-2.985 1.0802 1.0802-6.3735 7.5528-9.791 8.5022-4.7197 1.3112-5.9736 1.2317-9.7197-0.6157zm99.259 0.12649c-2.1542-0.76668-5.0661-2.5433-6.4708-3.948l-2.554-2.554 3.4642 0.99352c1.9053 0.54643 5.4439 0.99352 7.8636 0.99352 3.9163 0 4.9221-0.52263 9.1587-4.7592 5.9235-5.9235 8.5256-13.519 7.485-21.847-0.37063-2.9664-0.47629-5.3935-0.2348-5.3935 1.1375 0 5.6399 8.1371 6.2234 11.247 0.90853 4.8429-2.0292 14.703-5.7114 19.17-5.1345 6.229-12.389 8.5298-19.224 6.0972zm9.4168-2.515c1.828-1.1813 0.24909-1.1813-2.5 0-1.3187 0.56668-1.4891 0.87816-0.5 0.9144 0.825 0.03023 2.175-0.38125 3-0.9144zm-208 2.0733c0-0.50967 0.7875-1.1325 1.75-1.384 0.9625-0.25153 0.0625-0.50952-2-0.57332-2.0625-0.0638-3.75-0.51491-3.75-1.0025 0-1.1795 8.0457-2.3409 11.645-1.6809l2.8553 0.52361-2.75-1.1712c-3.4986-1.49-3.4526-2.5432 0.41709-9.5502 5.0462-9.1375 4.8856-9.0339 13.115-8.4591 7.1046 0.49619 8.6705 1.2561 8.7044 4.2243 0.0134 1.1729-1.3264 1.5-6.1437 1.5h-6.1608l-2.7133 4.5c-3.2622 5.4104-4.5834 12-2.4059 12 0.79042 0 1.4371 0.45 1.4371 1 0 0.57143-3 1-7 1-3.85 0-7-0.417-7-0.92668zm12.309-14.08c2.0947-3.8463 3.3379-6.9933 2.7626-6.9933s-2.6324 3.15-4.5712 7c-4.578 9.0908-3.143 9.0854 1.8086-0.0067zm14.453-6.6804c-0.95609-0.25029-2.7561-0.25937-4-0.02018-1.2439 0.23919-0.46166 0.44398 1.7383 0.45508s3.2177-0.1846 2.2617-0.4349zm3.7825 20.759c-0.31562-0.51068 0.44533-1.1244 1.691-1.3638 1.2457-0.23942 0.26233-0.4966-2.1852-0.5715-7.4398-0.22768-3.1851-2.5146 4.8-2.58 6.1498-0.05036 6.5761-0.17665 4.1054-1.2162-1.7967-0.75597-2.9559-2.1492-3.3281-4-1.6029-7.9698-4.7786-39.485-4.1359-41.043 0.61167-1.4825 0.83143-1.5345 1.2555-0.297 0.28273 0.825 1.1847 2.2705 2.0043 3.2122 0.98891 1.1362 2.2802 8.201 3.8383 21 1.2914 10.608 2.8121 20.069 3.3792 21.024 0.56716 0.95504 1.0312 2.4175 1.0312 3.25s0.675 1.5136 1.5 1.5136 1.5 0.45 1.5 1c0 1.2705-14.673 1.3384-15.456 0.07149zm133.07-0.63488c-0.32996-0.85986-1.0531-1.2833-1.607-0.94098-2.3184 1.4329-2.8245-0.76124-0.64586-2.8 2.5449-2.3815 7.9593-20.217 8.1413-26.818 0.0549-1.9924 0.86433-4.3871 1.7987-5.3214 1.5984-1.5984 1.7082-1.5617 1.8564 0.62259 0.0866 1.2768 0.13184 2.9128 0.10043 3.6355-0.0413 0.94945 0.45137 0.85393 1.7753-0.34421 1.2642-1.1441 2.728-1.4616 4.7208-1.0239 2.468 0.54208 3.0691 0.2376 4.1308-2.0924l1.2424-2.7268 2.4004 2.9367c2.8169 3.4461 3.0072 4.7589 0.98357 6.7826-1.1921 1.1921-2.0729 1.2683-4.4198 0.38245-2.3163-0.87431-3.2964-0.80454-4.6729 0.33263-2.1502 1.7763-5.7058 9.764-7.3175 16.439-2.9723 12.31-3.0565 12.5-5.5325 12.5-1.295 0-2.6244-0.70352-2.9544-1.5634zm14.385-27.935c0.73544-1.3742 0.99969-2.836 0.58722-3.2484-0.86724-0.86724-3.5864 2.4976-3.5864 4.4381 0 2.1205 1.5585 1.5023 2.9992-1.1896zm-79.206 21.949c-1.8373-0.9973-2.9162-2.5876-3.3599-4.9524-0.89746-4.7839-0.0166-6.4984 3.3385-6.4984 3.5473 0 12.142-4.2158 15.174-7.4426 1.4432-1.5363 2.4806-4.1634 2.8148-7.1285l0.52926-4.6956 1.8701 2.3834c1.0286 1.3109 2.5834 3.8329 3.4552 5.6046 1.4489 2.9445 1.4476 3.3586-0.0152 4.8214-0.88016 0.88014-1.6003 1.9875-1.6003 2.4607 0 1.6342-6.2062 5.2715-12.842 7.5265-6.6059 2.2448-6.657 2.2906-6.5439 5.8663 0.0627 1.9821 0.0627 3.5858 0 3.5638-0.0627-0.02202-1.3319-0.70111-2.8204-1.5091zm12.009-11.643c1.8164-1.1199 3.1494-2.1893 2.9622-2.3765-0.6145-0.61449-11.73 4.0474-11.748 4.9269-0.0249 1.253 4.9667-0.19606 8.7855-2.5504zm-58.445 10.68c-0.70244-1.8305 10.137-43.928 11.993-46.578l1.6497-2.3553v2.7225c0 1.7533 0.53398 2.7225 1.5 2.7225 2.0321 0 2.0404-0.059253-2.5 18-2.2 8.7505-4 17.021-4 18.378 0 4.7491-7.2577 10.72-8.6429 7.11zm22 0c-0.70244-1.8305 10.137-43.928 11.993-46.578l1.6497-2.3553v2.7225c0 1.7533 0.53398 2.7225 1.5 2.7225 2.0321 0 2.0404-0.059253-2.5 18-2.2 8.7505-4 17.021-4 18.378 0 4.7491-7.2577 10.72-8.6429 7.11zm118.52-0.6156c-1.842-1.842-2.0552-2.9226-1.5897-8.0565 0.68803-7.5877 4.8968-16.345 9.082-18.897 4.1975-2.5595 10.226-2.5517 11.6 0.01512 1.4845 2.7738 1.3354 3.0657-1.5648 3.0657-5.7199 0-13.4 12.631-13.4 22.038 0 4.4688-1.034 4.9285-4.1273 1.8351zm16.044-26.513c1.0035-0.86538-3.5663-0.22744-4.9167 0.68637-1.0955 0.74131-0.69092 0.83408 1.5 0.34401 1.65-0.36908 3.1875-0.83275 3.4167-1.0304zm-77.667 23.42c-2.5324-1.2214-2.7225-2.0281-1.1639-4.9404 0.89439-1.6712 1.7002-1.9142 4.5654-1.3767 7.6426 1.4338 15.972-5.9599 15.183-13.478-0.27124-2.5859 0.23007-3.1887 4.4125-5.3061l4.7185-2.3888-0.6138 2.4456c-0.56204 2.2393-0.44524 2.3403 1.3848 1.1974 1.1577-0.723 2.7907-0.92924 3.8811-0.49018 1.7608 0.70898 1.737 0.81407-0.36753 1.6256-1.2375 0.47719-2.25 1.2946-2.25 1.8165s-1.2039 1.3502-2.6753 1.8406c-2.325 0.77498-2.7 1.4794-2.8644 5.3797-0.33805 8.0227-4.6097 11.736-14.537 12.636-3.2579 0.29542-5.9234 0.92462-5.9234 1.3982 0 1.0923-0.92346 1.0038-3.75-0.35938zm1.75-1.7795c0-0.55-0.45-1-1-1s-1 0.45-1 1 0.45 1 1 1 1-0.45 1-1zm-6.1276-5.75c-1.2439-1.5861-1.2085-1.6214 0.37756-0.37756 1.6658 1.3064 2.1955 2.1276 1.3724 2.1276-0.20765 0-0.99515-0.7875-1.75-1.75zm-31.276-1.0938c-1.6396-2.653 4.2337-13.379 8.6785-15.849 3.7049-2.0587 7.4058-1.6277 8.0947 0.94278 0.87157 3.2522 0.77857 3.7395-0.61971 3.2468-0.6875-0.24225-1.9415 0.10937-2.7867 0.78138-2.3311 1.8535-5.9633 7.3411-5.9633 9.0096 0 2.1043-6.2785 3.6887-7.4035 1.8684zm13.066-14.983c-0.99641-0.19189-2.6782 0.4353-3.7372 1.3937-3.1772 2.8753-2.1788 3.5146 1.8116 1.1602 2.8767-1.6973 3.3201-2.2854 1.9256-2.5539zm22.837 14.631c-2.7379-1.5526-3.4668-2.8295-3.4847-6.1047-0.03489-6.3798 4.5749-10.7 11.417-10.7 2.4443 0 3.7703 0.6599 4.953 2.4648 2.0966 3.1998 2.0573 3.3424-0.77293 2.8014-1.3134-0.25107-3.3337 0.04968-4.4896 0.66832-2.7929 1.4947-5.4181 6.7384-4.8531 9.6938 0.50668 2.6505 0.11967 2.8149-2.7693 1.1767zm8.2292-14.409c-0.3323-0.33229-1.1948-0.36782-1.9167-0.07895-0.79773 0.31923-0.56078 0.55618 0.60417 0.60417 1.0542 0.04342 1.6448-0.19293 1.3125-0.52522zm-124.72 8.3542c0.0076-1.8617 9.4936-18.083 10.836-18.531 0.63716-0.21239 1.1585 0.32634 1.1585 1.1972 0 0.87083-0.37448 1.5833-0.83218 1.5833-0.4577 0-2.8202 3.8197-5.25 8.4881-4.1558 7.9848-5.9245 10.157-5.9127 7.2619zm7.057-5.2319c2.1658-3.5651 3.9734-7.2776 4.0169-8.25 0.05269-1.1801 0.40053-0.89083 1.046 0.8698 0.79091 2.1575 0.51127 3.3094-1.5356 6.3256-1.3764 2.0283-2.7774 4.5537-3.1133 5.6121-0.33593 1.0584-1.4525 1.9244-2.4813 1.9244-1.6147 0-1.332-0.88639 2.0674-6.4819zm34.938-17.699c0-0.83262-1.0125-2.0022-2.25-2.599l-2.25-1.0851 2.1826-0.06768c2.1124-0.065504 4.236 3.3471 2.9087 4.6743-0.32522 0.32522-0.59131-0.089928-0.59131-0.92255zm22 0c0-0.83262-1.0125-2.0022-2.25-2.599l-2.25-1.0851 2.1826-0.06768c2.1124-0.065504 4.236 3.3471 2.9087 4.6743-0.32522 0.32522-0.59131-0.089928-0.59131-0.92255z" fill="#6e96fb"/>
  <path d="m136.5 74.003c-1.65-0.51406-4.575-2.2719-6.5-3.9063l-3.5-2.9716 4 1.3933c4.8219 1.6796 12.332 1.8734 16.185 0.41751 6.7459-2.5488 10.922-10.065 8.3069-14.952-2.2001-4.1109 0.88132-1.0573 3.5801 3.5477 3.8147 6.5093 2.0775 11.565-5.2757 15.353-3.0535 1.5732-13.173 2.2467-16.796 1.1179zm16-4.1862 2-2.0954-2 0.77378c-1.1 0.42558-3.7985 1.4242-5.9968 2.2192-5.5947 2.0233-5.7704 2.6799-0.50324 1.8807 2.5482-0.38665 5.3675-1.5917 6.5-2.7782zm-21.427-5.4521c-3.1463-3.9998-2.7013-7.7838 1.2718-10.814 3.9498-3.0126 5.7942-3.1263 11.156-0.68741 4.3378 1.9732 8.8507 6.2381 5 4.7252-1.1-0.43217-3.6533-1.0211-5.674-1.3087-4.8932-0.69648-9.2675 3.2585-8.604 7.7793 0.53425 3.6401-0.4514 3.7358-3.1494 0.3058zm5.619-10.149c-2.5898-0.55117-4.6916 0.46962-4.6916 2.2786 0 1.3749 0.38024 1.3552 3.25-0.16831 2.5727-1.3658 2.8732-1.8056 1.4416-2.1103zm-78.966 2.2439c-3.8532-2.6183-4.8068-3.8117-2.2671-2.8371 2.9619 1.1366 8.5878-1.7357 11.235-5.7361 1.4294-2.1599 2.7912-3.7348 3.0262-3.4997 0.42774 0.42774-1.6865 4.6135-3.9474 7.8153-2.2894 3.2421 0.43449 3.2836 3.1477 0.04796 3.4332-4.0942 4.7591-4.2088 2.3952-0.20716-3.6886 6.2443-8.5671 7.8298-13.59 4.4168zm22 0c-3.8532-2.6183-4.8068-3.8117-2.2671-2.8371 2.9619 1.1366 8.5878-1.7357 11.235-5.7361 1.4294-2.1599 2.7912-3.7348 3.0262-3.4997 0.42774 0.42774-1.6865 4.6135-3.9474 7.8153-2.2894 3.2421 0.43449 3.2836 3.1477 0.04796 3.4332-4.0942 4.7591-4.2088 2.3952-0.20716-3.6886 6.2443-8.5671 7.8298-13.59 4.4168zm25.774 0.97724c-1.65-0.85292-3.6089-2.1501-4.3531-2.8826-1.129-1.1113-0.60215-1.2472 3.1816-0.82073 5.6733 0.63946 12.178-2.2994 15.422-6.9671 1.4222-2.0469 2.25-2.6385 2.25-1.6081 0 1.7913-4.085 6.4134-8 9.0519l-2.5 1.6849 2.6788 0.05245c1.7379 0.03403 3.9872-1.1815 6.4037-3.4606 2.0487-1.9322 3.9625-3.2754 4.2528-2.985 1.0802 1.0802-6.3735 7.5528-9.791 8.5022-4.7671 1.3243-6.0302 1.2492-9.5444-0.56729zm99.083 0.07808c-2.1542-0.76668-5.0792-2.6314-6.5-4.1438-1.4208-1.5124-1.7445-2.117-0.71945-1.3436 3.0066 2.2684 12.918 1.8913 16.31-0.6205 8.0225-5.9404 12.61-17.269 10.583-26.131-0.53822-2.352-0.87581-4.2764-0.7502-4.2764 0.12562 0 1.3822 1.7435 2.7924 3.8745 3.6292 5.484 4.1843 9.7743 2.1863 16.895-3.5491 12.649-13.74 19.362-23.901 15.745zm9.4168-2.515c1.828-1.1813 0.24909-1.1813-2.5 0-1.3187 0.56668-1.4891 0.87816-0.5 0.9144 0.825 0.03023 2.175-0.38125 3-0.9144zm-208 2.0733c0-0.50967 0.7875-1.1325 1.75-1.384 0.9625-0.25153 0.035942-0.50952-2.059-0.57332-6.6547-0.20266-2.9559-2.116 4.0905-2.116 6.5433 0 6.6189-0.03008 4.191-1.6684-1.3599-0.91762-2.632-1.7896-2.8269-1.9377-0.19493-0.14814 1.5241-3.6724 3.82-7.8316l4.1745-7.5623h7.23c7.3056 0 9.6283 0.95254 9.6318 3.95 0.0014 1.2325-1.2603 1.55-6.159 1.55h-6.1608l-2.7133 4.5c-3.2622 5.4104-4.5834 12-2.4059 12 0.79042 0 1.4371 0.45 1.4371 1 0 0.57143-3 1-7 1-3.85 0-7-0.417-7-0.92668zm12.309-14.08c2.0947-3.8463 3.3379-6.9933 2.7626-6.9933s-2.6324 3.15-4.5712 7c-4.578 9.0908-3.143 9.0854 1.8086-0.0067zm14.453-6.6804c-0.95609-0.25029-2.7561-0.25937-4-0.02018-1.2439 0.23919-0.46166 0.44398 1.7383 0.45508s3.2177-0.1846 2.2617-0.4349zm3.7825 20.759c-0.31562-0.51068 0.44533-1.1244 1.691-1.3638 1.2457-0.23942 0.32577-0.4966-2.0442-0.5715-7.5126-0.23743-3.5341-2.1324 4.618-2.1996 5.6444-0.04652 7.0901-0.30484 5.4329-0.97078-3.2976-1.3251-3.9174-3.6298-6.1871-23.009-1.97-16.82-2.5163-26.142-1.3453-22.957 0.30335 0.825 1.2222 2.2705 2.0418 3.2122 0.98891 1.1362 2.2802 8.201 3.8383 21 1.2914 10.608 2.8121 20.069 3.3792 21.024 0.56716 0.95504 1.0312 2.4175 1.0312 3.25s0.675 1.5136 1.5 1.5136 1.5 0.45 1.5 1c0 1.2705-14.673 1.3384-15.456 0.07149zm133.1-0.55464c-0.31302-0.81573-1.2156-1.235-2.0058-0.93183-0.79018 0.30322-1.7338 0.07064-2.0969-0.51686-0.36309-0.5875-0.0711-1.0751 0.64885-1.0835 2.8174-0.03296 3.9498-1.9716 6.316-10.813 3.927-14.674 8.3437-21.392 12.575-19.127 2.4885 1.3318 4.8248 0.17471 5.5598-2.7535l0.62469-2.4889 2.3307 2.8492c2.747 3.3582 2.9276 4.6814 0.91386 6.6952-1.1921 1.1921-2.0729 1.2683-4.4198 0.38245-2.3163-0.87431-3.2964-0.80454-4.6729 0.33263-2.1502 1.7763-5.7058 9.764-7.3175 16.439-2.9723 12.31-3.0565 12.5-5.5325 12.5-1.295 0-2.6106-0.66741-2.9236-1.4831zm14.354-28.015c0.73544-1.3742 0.99969-2.836 0.58722-3.2484-0.86724-0.86724-3.5864 2.4976-3.5864 4.4381 0 2.1205 1.5585 1.5023 2.9992-1.1896zm-78.974 21.524c-2.1764-2.1764-3.393-5.8782-2.8532-8.6811 0.23368-1.2134 1.5661-2.0117 4.0251-2.4114 9.8206-1.5963 18.324-9.2204 17.571-15.753l-0.38296-3.3204 1.8226 2.3204c1.0025 1.2762 2.5359 3.7699 3.4077 5.5416 1.4489 2.9445 1.4476 3.3586-0.0152 4.8214-0.88016 0.88014-1.6003 1.9875-1.6003 2.4607 0 1.6342-6.2062 5.2715-12.842 7.5265-6.6059 2.2448-6.657 2.2906-6.5439 5.8663 0.13253 4.1871 0.0323 4.2502-2.5886 1.6293zm11.777-11.217c1.8164-1.1199 3.1494-2.1893 2.9622-2.3765-0.6145-0.61449-11.73 4.0474-11.748 4.9269-0.0249 1.253 4.9667-0.19606 8.7855-2.5504zm-56.627 10.904c-1.0143-1.2222-0.20809-5.6372 4.345-23.794 5.6959-22.714 7.3913-27.874 7.4489-22.668 0.019509 1.7643 0.56808 2.75 1.5304 2.75 2.0321 0 2.0404-0.059253-2.5 18-2.2 8.7505-4 17.048-4 18.439 0 1.3911-1.2553 3.9341-2.7894 5.6512-2.4165 2.7045-2.956 2.9213-4.0348 1.6213zm22 0c-1.0143-1.2222-0.20809-5.6372 4.345-23.794 5.6959-22.714 7.3913-27.874 7.4489-22.668 0.019509 1.7643 0.56808 2.75 1.5304 2.75 2.0321 0 2.0404-0.059253-2.5 18-2.2 8.7505-4 17.048-4 18.439 0 1.3911-1.2553 3.9341-2.7894 5.6512-2.4165 2.7045-2.956 2.9213-4.0348 1.6213zm117.21-1.2445c-3.6923-5.6351 1.2685-22.457 7.7961-26.437 4.1259-2.5155 7.9986-2.5922 10.162-0.20125 2.278 2.5172 2.0831 3.1713-0.94501 3.1713-5.7199 0-13.4 12.631-13.4 22.038 0 4.5623-1.2395 5.0528-3.6135 1.4297zm15.53-26.108c1.0035-0.86538-3.5663-0.22744-4.9167 0.68637-1.0955 0.74131-0.69092 0.83408 1.5 0.34401 1.65-0.36908 3.1875-0.83275 3.4167-1.0304zm-78.023 22.755c-3.3887-2.744-1.1439-5.1146 4.8431-5.1146 8.7635 0 15.811-6.6617 15.074-14.248-0.24628-2.5343 0.10203-3.2705 1.6898-3.5718 1.1-0.20874 3.0491-1.3471 4.3314-2.5297l2.3314-2.1502-0.74727 3c-0.65326 2.6226-0.55391 2.8408 0.78971 1.7345 1.0806-0.88974 2.2433-0.98279 3.9159-0.31339 1.6536 0.66182 1.8605 0.9714 0.6786 1.0155-0.93517 0.03486-2.0636 0.71254-2.5076 1.5059-0.44402 0.79341-1.8958 1.8452-3.2262 2.3374-2.0161 0.74582-2.4502 1.6372-2.6068 5.3538-0.33678 7.9924-4.6207 11.708-14.536 12.607-3.2579 0.29542-5.9234 0.92462-5.9234 1.3982 0 1.3963-1.6149 0.99357-4.1068-1.0243zm2.1068-1.1146c0-0.55-0.45-1-1-1s-1 0.45-1 1 0.45 1 1 1 1-0.45 1-1zm-6.1276-5.75c-1.2439-1.5861-1.2085-1.6214 0.37756-0.37756 1.6658 1.3064 2.1955 2.1276 1.3724 2.1276-0.20765 0-0.99515-0.7875-1.75-1.75zm-29.552-1.3293c-1.237-1.237-0.5263-4.6886 1.9522-9.4815 3.1356-6.0636 8.5893-8.7789 11.799-5.8744 2.1536 1.949 2.6133 4.6137 0.67834 3.9319-0.6875-0.24225-1.9415 0.10937-2.7867 0.78138-2.3998 1.9081-5.9633 7.3616-5.9633 9.1262 0 0.8776-0.4132 1.5956-0.91821 1.5956-0.50502 0-1.5302 0.23484-2.2782 0.52186-0.74796 0.28702-1.8653 0.01649-2.483-0.60118zm11.342-14.747c-0.99641-0.19189-2.6782 0.4353-3.7372 1.3937-3.1772 2.8753-2.1788 3.5146 1.8116 1.1602 2.8767-1.6973 3.3201-2.2854 1.9256-2.5539zm22.511 13.512c-1.1959-1.2729-2.1743-3.5453-2.1743-5.0497 0-8.5983 9.5368-13.951 14.826-8.3214 2.7778 2.9568 2.7373 3.5158-0.21363 2.9517-1.3134-0.25107-3.3337 0.04968-4.4896 0.66832-2.7929 1.4947-5.4181 6.7384-4.8531 9.6938 0.57119 2.988-0.32606 3.0046-3.095 0.05721zm8.5549-13.29c-0.3323-0.33229-1.1948-0.36782-1.9167-0.07895-0.79773 0.31923-0.56078 0.55618 0.60417 0.60417 1.0542 0.04342 1.6448-0.19293 1.3125-0.52522zm-124.08 8.8375c-0.81237-1.3144 8.5442-18.17 10.106-18.205 1.4472-0.03273 1.6987 1.6441 0.32074 2.1384-0.51109 0.18333-2.9323 4.0899-5.3805 8.6812-2.4482 4.5913-4.7189 7.9148-5.046 7.3855zm6.4179-5.7153c2.1658-3.5651 3.9734-7.2776 4.0169-8.25 0.05269-1.1801 0.40053-0.89083 1.046 0.8698 0.79091 2.1575 0.51127 3.3094-1.5356 6.3256-1.3764 2.0283-2.7774 4.5537-3.1133 5.6121-0.33593 1.0584-1.4525 1.9244-2.4813 1.9244-1.6147 0-1.332-0.88639 2.0674-6.4819zm148.49-0.44157c-0.3498-0.56599 0.0409-2.2772 0.86832-3.8028 1.4371-2.6498 1.5128-2.6732 1.6944-0.52371 0.10452 1.2375 0.23504 2.775 0.29004 3.4167 0.1316 1.5353-2.0384 2.2274-2.8527 0.90983zm-113.47-17.326c-0.043421-0.9625-0.52895-1.75-1.0789-1.75s-1-0.54643-1-1.2143c0-0.78664 0.56915-0.64513 1.6161 0.40179 0.88884 0.88884 1.3744 2.2228 1.0789 2.9643-0.36785 0.92333-0.562 0.79671-0.61607-0.40179zm22 0c-0.043421-0.9625-0.52895-1.75-1.0789-1.75s-1-0.54643-1-1.2143c0-0.78664 0.56915-0.64513 1.6161 0.40179 0.88884 0.88884 1.3744 2.2228 1.0789 2.9643-0.36785 0.92333-0.562 0.79671-0.61607-0.40179z" fill="#9b9b9c"/>
  <path d="m132.35 71.051c-3.6686-1.5551-3.7638-3.0289-0.12823-1.9863 11.673 3.3477 23.121-2.1244 23.228-11.103 0.0411-3.4289 0.22061-3.7442 1.2977-2.2791 1.901 2.5859 1.4957 7.0723-0.85083 9.4189-4.603 4.603-18.462 8.1049-23.547 5.9497zm-2.3172-7.9848c-1.9685-3.6782-1.202-6.8367 2.3092-9.5148 1.8394-1.403 4.2019-2.541 5.25-2.5289 1.9175 0.0221 10.406 3.5238 10.406 4.2927 0 0.22687-2.9106-0.28392-6.468-1.1351-6.1708-1.4764-6.566-1.4588-8.602 0.38373-1.7666 1.5988-2.0337 2.6635-1.5512 6.184 0.63643 4.6432 0.25383 5.3034-1.3437 2.3184zm-72.821-7.9121c-0.86998-0.552 0.01556-1.2056 2.739-2.0215 2.7754-0.83153 4.804-2.3528 6.5356-4.9011 1.3811-2.0324 2.511-3.2283 2.511-2.6574 0 1.3406-4.5463 7.5566-6.7114 9.1764-1.9305 1.4443-3.2666 1.5506-5.0742 0.40365zm22 0c-0.86998-0.552 0.01556-1.2056 2.739-2.0215 2.7754-0.83153 4.804-2.3528 6.5356-4.9011 1.3811-2.0324 2.511-3.2283 2.511-2.6574 0 1.3406-4.5463 7.5566-6.7114 9.1764-1.9305 1.4443-3.2666 1.5506-5.0742 0.40365zm22.957-0.44714c-0.85033-1.0246-0.37089-1.2115 2.3063-0.89892 4.7307 0.55229 9.8615-1.3744 13.459-5.0541 1.6848-1.7232 3.0632-2.6762 3.0632-2.1176 0 1.4343-3.8364 4.8009-8.2804 7.2666-4.2745 2.3716-8.9513 2.7281-10.548 0.80402zm98.329-0.16066c-1.8738-1.446-1.7383-1.5049 2.1474-0.93321 5.7676 0.84851 10.587-1.0227 14.884-5.7789 4.9178-5.4434 6.7335-10.099 6.8617-17.595 0.09-5.2648 0.306-5.9903 1.3571-4.5589 3.3696 4.5889-0.39546 19.293-6.0384 23.582-7.493 5.6955-15.739 7.9633-19.212 5.2835zm-194-0.47756c-3.6073-0.62402-3.288-0.73496 3.2525-1.1301 4.5788-0.27663 7.131-0.069508 6.923 0.56183-0.40735 1.2362-4.8728 1.4856-10.175 0.56829zm30-0.068293c-3.2195-0.57644-2.3787-0.74388 4.309-0.8581 5.3185-0.090832 8.0866 0.21801 7.691 0.8581-0.68233 1.104-5.8338 1.104-12 0zm131.25-0.17742c1.4148-0.71012 2.6398-2.6547 3.2928-5.2267 2.4627-9.7008 5.045-17.315 6.8784-20.282 2.0693-3.3488 6.0758-6.2166 6.0758-4.349 0 0.56935-0.4753 1.0352-1.0562 1.0352-1.6182 0-5.0625 8.4156-7.981 19.5l-2.633 10-3.4149 0.22672c-3.1495 0.2091-3.2398 0.13884-1.162-0.90414zm-156.75-4.4495c0-0.34479 1.8315-3.9448 4.07-8l4.07-7.3731h7.5966c9.2709 0 9.1125 0.90779-0.24084 1.3807l-6.8006 0.34387-3.5976 7.0872c-3.1238 6.1538-5.0976 8.6943-5.0976 6.5613zm31.543-1.6231c-0.8737-3.971-4.5456-36.142-4.4798-39.25l0.06351-3 1.0131 2.5c0.71103 1.7546 5.7026 37.368 5.8516 41.75 0.0047 0.1375-0.43292 0.25-0.97244 0.25s-1.2037-1.0125-1.476-2.25zm17.072 1.4367c-0.76045-1.2304 10.033-45.201 11.448-46.637 1.9763-2.0054 0.7865 5.1199-4.1208 24.677-5.2656 20.985-6.1996 23.785-7.3276 21.959zm22 0c-0.76045-1.2304 10.033-45.201 11.448-46.637 1.9763-2.0054 0.7865 5.1199-4.1208 24.677-5.2656 20.985-6.1996 23.785-7.3276 21.959zm21.424-2.0918c-2.0493-4.9474-1.0722-7.4819 3.1472-8.1638 5.0698-0.81926 12.705-4.9056 15.06-8.0602 1.0745-1.4391 2.2927-4.1363 2.7072-5.9938l0.75368-3.3772 0.75445 2.75c1.6829 6.1343-1.5868 9.4679-14.385 14.666l-6.5778 2.6716 0.26814 4.2063c0.31589 4.9553-0.089 5.26-1.7288 1.3012zm95.873 0.74102c-1.671-3.1223-0.50151-11.869 2.4485-18.313 2.7172-5.9352 7.1636-9.5131 11.83-9.5195 3.9837-0.0055 4.1831 1.4836 0.21043 1.5713-2.0775 0.04582-4.3386 0.95685-5.8132 2.3421-3.5055 3.2933-7.0365 13.482-7.0465 20.333-5e-3 3.1625-0.11254 5.75-0.23986 5.75s-0.75265-0.97382-1.3896-2.164zm-63.912-4.436c0-2.1158 2.5736-3.4 6.8138-3.4 8.6833 0 15.73-6.6955 14.996-14.248-0.24619-2.5334 0.10256-3.2713 1.6898-3.5752 1.1-0.21061 2.7875-1.0812 3.75-1.9347 0.9625-0.85346 1.7431-1.1445 1.7347-0.64676-0.0272 1.6047-1.4341 3.1197-3.4926 3.7608-1.6967 0.52841-1.9526 1.3209-1.651 5.1128 0.30849 3.8788-0.0411 4.8854-2.5775 7.4218-2.9561 2.9561-11.341 6.1096-16.245 6.1096-1.4402 0-3.1585 0.54-3.8185 1.2-0.66667 0.66667-1.2 0.75556-1.2 0.2zm-32.269-7.0025c-0.69491-0.69492 0.56513-5.1355 2.542-8.9583 2.0662-3.9956 4.6448-6.1616 8.2271-6.9108l3-0.6274-3.2303 1.4929c-3.6537 1.6886-6.7898 6.2343-7.7193 11.189-0.62298 3.3208-1.7664 4.8678-2.8196 3.8147zm32.936-2.0642c-2.526-2.526 0.92021-11.846 4.9463-13.376 3.0848-1.1728 7.0916-1.244 7.7752-0.13798 0.27841 0.45048-0.74787 0.635-2.2806 0.41004-4.5362-0.66576-8.1372 3.2002-8.3962 9.014-0.20471 4.5944-0.64994 5.485-2.0447 4.0903zm-114.46-3.8333c0.7003-2.4286 9.3664-17.473 10.072-17.486 0.43117-0.0077-0.91883 3.058-3 6.8127-3.7314 6.7319-7.6342 12.622-7.0723 10.673zm164.77-5.0229c-1.0459-1.2602-1.003-1.4228 0.24862-0.94249 1.6149 0.61971 4.7503-1.8986 4.8008-3.856 0.0167-0.64821 0.48575-0.39703 1.0423 0.55818 2.3059 3.9578-3.1654 7.7663-6.0917 4.2404zm-9.3385-0.2465c-0.40425-0.6541-0.22774-2.1371 0.39226-3.2956 1.5092-2.82 2.0813-2.016 1.1209 1.5752-0.49008 1.8325-1.0503 2.4694-1.5132 1.7204z" fill="#4457d1"/>
  <path d="m132.5 71c-1.8181-0.78125-1.7726-0.85676 0.5-0.83004 1.375 0.01617 3.625 0.38968 5 0.83004 2.4378 0.78073 2.4254 0.80137-0.5 0.83004-1.65 0.01617-3.9-0.35735-5-0.83004zm10.25-0.66228c0.6875-0.27741 1.8125-0.27741 2.5 0 0.6875 0.27741 0.125 0.50439-1.25 0.50439s-1.9375-0.22697-1.25-0.50439zm7.3264-2.6102c3.1682-2.135 4.8522-4.5171 6.5235-9.2275 0.65903-1.8574 0.74054-1.8696 1.1434-0.1709 0.8672 3.6565-0.77683 6.6062-5.0911 9.1346-5.3787 3.1521-7.1276 3.3313-2.5758 0.26383zm-19.41-5.3942c-0.36667-0.36667-0.66667-2.1412-0.66667-3.9433 0-5.7149 5.9789-8.0251 12.5-4.8299 1.65 0.80849 2.1732 1.2372 1.1626 0.95274-6.2428-1.7574-9.2186-1.661-11.045 0.35763-1.2476 1.3786-1.7096 3.0465-1.4096 5.09 0.48169 3.2819 0.46064 3.3743-0.54085 2.3728zm-73.167-7.3333c-0.34094-0.55164 0.37456-1 1.5958-1 1.2979 0 3.8593-1.7297 6.191-4.1808 2.1874-2.2995 3.4903-3.2712 2.8953-2.1594-1.8011 3.3654-6.8857 8.3403-8.5243 8.3403-0.84688 0-1.8179-0.45-2.1578-1zm22 0c-0.34094-0.55164 0.37456-1 1.5958-1 1.2979 0 3.8593-1.7297 6.191-4.1808 2.1874-2.2995 3.4903-3.2712 2.8953-2.1594-1.8011 3.3654-6.8857 8.3403-8.5243 8.3403-0.84688 0-1.8179-0.45-2.1578-1zm25 0c2.8081-1.2067 6.7458-1.2067 6 0-0.33992 0.55-2.279 0.96837-4.309 0.92972-2.9747-0.056645-3.3028-0.23707-1.691-0.92972zm96.5 0.02593c-1.092-0.72459-0.0585-0.99947 3.7997-1.0106 2.9148-0.0084 6.5148-0.65014 8-1.426 6.9422-3.6268 12.168-12.924 12.409-22.076 0.16809-6.3887 1.7527-5.3191 1.7764 1.1991 0.0226 6.2272-3.4725 14.661-7.2731 17.55-6.7584 5.1372-15.567 7.8503-18.712 5.7635zm-190.69-0.67205c1.0071-1.0071 6.7277-1.2284 6.1147-0.23655-0.30004 0.48547-1.944 0.88267-3.6532 0.88267-1.7092 0-2.8169-0.29075-2.4615-0.64612zm30.154-0.29988c0.32156-0.5203 2.3414-0.87594 4.4884-0.79032 5.0876 0.20288 4.1399 1.7363-1.0731 1.7363-2.2598 0-3.7456-0.41156-3.4153-0.94599zm128.2-0.19047c1.6046-0.81205 2.6195-2.9598 3.8894-8.2311 0.94506-3.9228 2.5602-9.4208 3.5891-12.218 1.8648-5.0689 6.2394-10.359 7.5131-9.0853 0.36884 0.36884 0.12031 0.67061-0.55228 0.67061-1.7734 0-5.126 8.0237-8.1477 19.5-2.5402 9.6475-2.7358 10.008-5.5479 10.231-2.7271 0.21626-2.775 0.16038-0.74373-0.86761zm-56.671-0.25654c0-0.21616 0.69837-0.661 1.5519-0.98855 0.88992-0.3415 1.2913-0.17385 0.94098 0.39301-0.58726 0.9502-2.4929 1.4054-2.4929 0.59554zm6.086-4.2252c1.3277-1.715 2.6152-2.9389 2.861-2.7197 0.24583 0.21918-0.84047 1.6224-2.414 3.1182l-2.861 2.7197zm-106.09-0.26609c0-1.5248 4.3564-10.021 6.4686-12.616 1.5214-1.8688 1.5306-1.7978 0.14112 1.0817-3.3804 7.0053-6.6098 12.641-6.6098 11.534zm31.566-0.22257c-0.26441-0.76622-1.4108-9.4931-2.5475-19.393-1.1367-9.9-2.2872-19.125-2.5565-20.5-0.41793-2.1333-0.33179-2.2397 0.5872-0.72578 1.1299 1.8614 6.2328 40.777 5.4497 41.56-0.24865 0.24865-0.66843-0.17481-0.93284-0.94103zm16.434-1.21c0-2.7261 10.186-43.08 11.139-44.133 1.793-1.9794 0.71708 4.0957-4.2038 23.737-4.5828 18.292-6.9357 25.211-6.9357 20.397zm22 0c0-2.7261 10.186-43.08 11.139-44.133 1.793-1.9794 0.71708 4.0957-4.2038 23.737-4.5828 18.292-6.9357 25.211-6.9357 20.397zm117.4-1.2373c-1.0684-4.2569 0.15003-11.957 2.696-17.038 2.5181-5.0253 5.6933-7.8505 9.9069-8.8147 2.0764-0.47516 1.9902-0.33588-0.50839 0.82187-1.6546 0.76668-3.7566 2.2245-4.671 3.2397-2.9388 3.2625-6.0509 12.613-6.1884 18.593-0.0727 3.1613-0.23614 5.7488-0.36316 5.75-0.12702 0.0012-0.51943-1.1472-0.87202-2.552zm-95.73 0.88756c-0.91736-0.91735-0.84462-7.3301 0.0833-7.347 0.4125-0.0075 1.875-0.25838 3.25-0.55748 2.3834-0.51847 2.3668-0.46709-0.35736 1.1018-2.4071 1.3863-2.7656 2.1045-2.275 4.5575 0.59696 2.9848 0.46414 3.4103-0.70097 2.2451zm32.333-5.3777c0-1.193 2.8526-1.9553 7.3318-1.9593 7.7007-0.0069 13.941-5.7733 13.941-12.882 0-3.3464 0.4059-4.0049 3.269-5.3026 2.3957-1.0859 3.1414-1.1491 2.7913-0.23678-0.26274 0.6847-1.4711 1.4942-2.6852 1.799-1.9104 0.47947-2.1555 1.0992-1.8213 4.6035 0.49872 5.2296-1.7241 8.6477-7.1983 11.069-4.612 2.0401-15.628 4.0908-15.628 2.9093zm-22.186-5.0722c5.3089-2.6653 10.186-7.4059 10.186-9.9013 0-1.0252 0.45-2.1422 1-2.4821 1.6549-1.0228 1.141 5.2162-0.57072 6.9279-2.1592 2.1592-9.3948 6.2301-12.429 6.993-1.375 0.3457-0.55854-0.34615 1.8144-1.5374zm-90.545-1.5764c0.97297-0.25354 2.323-0.23687 3 0.03705 0.67703 0.27393-0.11903 0.48137-1.769 0.46099-1.65-0.020379-2.2039-0.2445-1.231-0.49804zm79.753-0.55701c0.0413-2.3511 3.7478-9.4576 6.0528-11.605 3.4483-3.2125 4.2122-2.5858 0.89345 0.73297-1.6123 1.6123-3.3898 4.9107-4.0418 7.5-1.0589 4.2052-2.9578 6.4098-2.9045 3.3721zm33.645-0.41667c-0.36667-0.36667-0.66667-2.331-0.66667-4.3651 0-3.9973 3.1197-8.9682 5.6283-8.9682 0.98166 0 0.6059 0.76082-1.1112 2.25-2.0266 1.7575-2.6407 3.2881-2.8058 6.993-0.11624 2.6087-0.24884 4.7462-0.29467 4.75-0.0458 0.0038-0.38334-0.29304-0.75-0.65971zm-114.55-4.8529c1.0117-2.6661 8.3223-15.378 8.6534-15.047 0.20696 0.20696-1.4954 3.6817-3.783 7.7216-3.8884 6.8669-5.7706 9.698-4.8704 7.3257zm167.06-5.367c1.2793-1.5876 2.7052-2.5359 3.1687-2.1074 1.3581 1.2559-1.2272 4.994-3.4539 4.994-1.9886 0-1.9813-0.07389 0.28518-2.8866z" fill="#494a50"/>
 </g>
</svg>
