<svg xmlns="http://www.w3.org/2000/svg" width="38" height="38" viewBox="0 0 38 38">
  <path id="Trazado_1" data-name="Trazado 1" d="M39.713,13.3a17.542,17.542,0,0,1-2.03,3.6,19.067,19.067,0,1,0-26.61,27.312l.7.623A19.045,19.045,0,0,0,43.049,31.609c.518-4.857-.9-11-3.336-18.309ZM13.782,44.324a1.63,1.63,0,1,1-.242-2.292,1.631,1.631,0,0,1,.242,2.292Zm25.85-5.712c-4.7,6.271-14.742,4.156-21.18,4.459,0,0-1.141.067-2.29.256,0,0,.433-.185.988-.394,4.521-1.577,6.658-1.879,9.4-3.294,5.171-2.631,10.285-8.395,11.348-14.386-1.967,5.763-7.94,10.719-13.377,12.732A91.154,91.154,0,0,1,14.067,40.7l-.271-.145c-4.582-2.229-4.724-12.16,3.6-15.363,3.657-1.407,7.137-.635,11.076-1.577,4.206-1,9.072-4.156,11.054-8.273,2.215,6.586,4.883,16.885.1,23.273Z" transform="translate(-5.155 -11.322)" fill="#68bd45"/>
</svg>
